{"title":"Eyes.Wide.Shut.1999.DvDRiP.XViD.AC3(5.1).Optional MultiSub.Zen_B","uid":5792285,"size":1918704991,"categoryP":"video","categoryS":"movies","magnet":"?xt=urn:btih:58d824b16f5e690050609815d1c2038302ea908b&amp;dn=Eyes.Wide.Shut.1999.DvDRiP.XViD.AC3%285.1%29.Optional+MultiSub.Zen_B&amp;tr=udp%3A%2F%2Ftracker.openbittorrent.com%3A80&amp;tr=udp%3A%2F%2Fopen.demonii.com%3A1337&amp;tr=udp%3A%2F%2Ftracker.coppersurfer.tk%3A6969&amp;tr=udp%3A%2F%2Fexodus.desync.com%3A6969","seeders":0,"leechers":0,"uploader":"Zen_Bud","files":-1,"time":1282895582,"description":"\nComplete name                    : Eyes.Wide.Shut.1999.avi\nFormat                           : AVI\nFile size                        : 1.77 GiB\nDuration                         : 2h 32mn\nOverall bit rate                 : 1 657 Kbps\n\nVideo\nID                               : 0\nFormat                           : MPEG-4 Visual\nCodec ID/Hint                    : XviD\nDuration                         : 2h 32mn\nBit rate                         : 1 262 Kbps\nWidth                            : 718 pixels\nHeight                           : 576 pixels\nDisplay aspect ratio             : 4:3\nStream size                      : 1.34 GiB (76%)\nWriting library                  : XviD 1.1.2 (UTC 2006-11-01)\n\nAudio\n\nFormat                           : AC-3\nDuration                         : 2h 32mn\nBit rate                         : 384 Kbps\nChannel(s)                       : 6 channels\nChannel positions                : Front: L C R, Side: L R, LFE\nSampling rate                    : 48.0 KHz\nBit depth                        : 16 bits\nStream size                      : 419 MiB (23%)\n\nText #1\nLanguage                         : English\n\nText #2\nLanguage                         : German\n\nText #3\nLanguage                         : Swedish\n\nText #4\nLanguage                         : Norwegian\n\nText #5\nLanguage                         : Danish\n\nText #6\nLanguage                         : Finnish\n\nText #7\nLanguage                         : Icelandic\n\n\n","torrent":{"xt":"urn:btih:58d824b16f5e690050609815d1c2038302ea908b","amp;dn":"Eyes.Wide.Shut.1999.DvDRiP.XViD.AC3%285.1%29.Optional+MultiSub.Zen_B","amp;tr":["udp%3A%2F%2Ftracker.openbittorrent.com%3A80","udp%3A%2F%2Fopen.demonii.com%3A1337","udp%3A%2F%2Ftracker.coppersurfer.tk%3A6969","udp%3A%2F%2Fexodus.desync.com%3A6969"],"infoHash":"58d824b16f5e690050609815d1c2038302ea908b","infoHashBuffer":{"type":"Buffer","data":[88,216,36,177,111,94,105,0,80,96,152,21,209,194,3,131,2,234,144,139]},"announce":[],"urlList":[]}}